<svg xmlns="http://www.w3.org/2000/svg" width="2106" height="552" viewBox="0 0 2106 552" version="1.1"><path d="M 198.407 62.849 C 198.798 63.482, 198.641 64, 198.059 64 C 197.477 64, 197 65.833, 197 68.074 C 197 71.659, 197.691 72.883, 202.750 78.260 C 205.912 81.622, 210.513 86.280, 212.972 88.612 L 217.445 92.851 215.567 94.926 C 214.535 96.067, 213.955 97, 214.278 97 C 214.601 97, 216.507 94.998, 218.511 92.551 C 221.010 89.503, 221.896 87.647, 221.328 86.655 C 220.873 85.858, 215.369 79.917, 209.098 73.452 C 202.826 66.987, 198.015 62.216, 198.407 62.849 M 371.500 64 C 370.505 65.100, 369.922 66, 370.205 66 C 370.488 66, 366.283 70.359, 360.860 75.687 C 351.079 85.296, 349.483 88.083, 352.200 90.800 C 352.860 91.460, 353.749 92, 354.176 92 C 355.063 92, 365.785 81.398, 370.706 75.655 C 374.006 71.803, 375.109 66.803, 372.951 65.470 C 372.235 65.027, 372.273 64.376, 373.074 63.411 C 374.874 61.242, 373.547 61.739, 371.500 64 M 175.400 84.756 C 175.799 85.447, 175.570 87.546, 174.892 89.421 C 173.333 93.735, 174.225 95.191, 185.769 107.166 L 194.253 115.967 196.609 113.733 C 197.905 112.505, 198.969 111.050, 198.974 110.500 C 198.978 109.950, 195.360 105.675, 190.934 101 C 186.508 96.325, 181.039 90.475, 178.781 88 C 176.523 85.525, 175.002 84.065, 175.400 84.756 M 384.250 96.942 C 378.063 103.385, 373 109.002, 373 109.424 C 373 109.846, 373.900 111.455, 374.999 112.999 L 376.999 115.807 383.749 108.668 C 387.462 104.741, 391.517 100.527, 392.760 99.303 C 396.016 96.096, 397.271 92.217, 396.121 88.917 C 395.594 87.406, 395.427 85.907, 395.748 85.585 C 396.070 85.263, 396.146 85.051, 395.917 85.114 C 395.688 85.177, 390.438 90.499, 384.250 96.942 M 152.634 112.082 C 151.787 116.313, 152.948 118.122, 163.298 128.716 C 171.247 136.852, 172.153 138.141, 171.036 139.716 C 170.339 140.697, 171.397 139.700, 173.385 137.500 C 175.374 135.300, 176.888 132.994, 176.750 132.376 C 176.363 130.638, 155.657 109, 154.380 109 C 153.759 109, 152.973 110.387, 152.634 112.082 M 405.649 120.409 C 399.792 126.683, 395 132.165, 395 132.593 C 395 133.021, 395.933 134.364, 397.074 135.578 L 399.147 137.786 402.324 134.587 C 413.818 123.010, 419 116.612, 419 114.001 C 419 112.485, 418.392 110.740, 417.649 110.124 C 416.582 109.238, 414.062 111.398, 405.649 120.409 M 606.242 173.750 L 606.484 233.500 606.750 174.270 L 607.016 115.041 627.758 114.749 L 648.500 114.457 627.250 114.229 L 606 114 606.242 173.750 M 1785.465 165 C 1785.465 193.325, 1785.593 204.913, 1785.749 190.750 C 1785.906 176.588, 1785.906 153.413, 1785.749 139.250 C 1785.593 125.088, 1785.465 136.675, 1785.465 165 M 131.666 129.750 C 132.001 131.078, 131.776 132, 131.117 132 C 130.502 132, 130 133.485, 130 135.301 C 130 138.101, 131.478 140.170, 139.750 148.956 C 145.113 154.651, 149.500 159.755, 149.500 160.297 C 149.500 160.839, 148.717 161.776, 147.760 162.379 C 146.292 163.306, 144.655 162.153, 137.260 154.988 L 128.500 146.500 136.978 155.250 C 141.641 160.063, 145.971 164, 146.601 164 C 147.230 164, 149.636 161.949, 151.947 159.442 C 156.881 154.089, 157.611 155.696, 143.802 141.500 C 138.453 136, 133.406 130.600, 132.587 129.500 L 131.099 127.500 131.666 129.750 M 428.822 141.011 C 422.595 147.618, 417.373 153.399, 417.217 153.860 C 417.062 154.320, 417.778 155.740, 418.810 157.014 L 420.686 159.330 423.093 157.432 C 424.417 156.388, 429.011 151.824, 433.302 147.290 L 441.104 139.047 440.802 134.024 C 440.636 131.261, 440.420 129, 440.322 129 C 440.224 129, 435.049 134.405, 428.822 141.011 M 450.156 164.046 L 438.811 175.958 440.873 179.295 C 442.007 181.130, 443.962 183.502, 445.218 184.566 L 447.500 186.500 445.595 184.250 L 443.690 182 445.595 179.750 C 446.643 178.512, 451.018 173.964, 455.317 169.642 C 462.811 162.108, 463.109 161.633, 462.521 158.142 C 462.183 156.139, 461.853 153.938, 461.787 153.250 C 461.721 152.563, 461.629 152.030, 461.583 152.067 C 461.538 152.104, 456.395 157.495, 450.156 164.046 M 109.141 155.589 C 107.507 159.177, 109.165 161.838, 119.780 172.667 C 126.841 179.870, 128.523 182.119, 127.633 183.164 C 127.010 183.896, 128.188 182.945, 130.250 181.051 C 132.313 179.157, 134 177.181, 134 176.659 C 134 175.534, 114.222 155.225, 111.892 153.957 C 110.682 153.298, 110.001 153.702, 109.141 155.589 M 483.407 173.975 C 482.908 175.071, 477.641 181.140, 471.702 187.460 C 459.695 200.237, 459.828 199.746, 466.658 206 C 468.761 207.925, 469.458 208.330, 468.207 206.900 L 465.934 204.301 474.217 195.561 C 483.368 185.905, 485.460 182.339, 484.088 178.732 C 483.544 177.302, 483.584 175.707, 484.191 174.622 C 484.737 173.648, 484.988 172.654, 484.749 172.415 C 484.510 172.176, 483.906 172.878, 483.407 173.975 M 87.688 176.646 C 87.309 177.024, 87 178.975, 87 180.981 C 87 184.229, 88.065 185.743, 96.754 194.842 L 106.508 205.057 109.996 202.144 L 113.485 199.232 101.610 187.866 C 88.968 175.765, 88.746 175.587, 87.688 176.646 M 506 196.996 C 506 197.544, 501.275 202.946, 495.500 209 C 489.725 215.054, 485 220.816, 485 221.804 C 485 223.717, 486.802 226, 488.312 226 C 489.361 226, 503.501 211.692, 505.565 208.542 C 506.680 206.839, 507.272 196.002, 506.250 196 C 506.113 196, 506 196.448, 506 196.996 M 64.950 201.093 C 62.965 204.802, 64.932 208.311, 74.283 217.743 L 83.446 226.985 77.976 232.743 C 73.617 237.330, 73.993 237.077, 79.824 231.500 C 83.848 227.650, 87.581 223.703, 88.118 222.728 C 88.927 221.260, 87.259 219.074, 78.389 209.978 C 72.501 203.940, 67.320 199, 66.877 199 C 66.433 199, 65.566 199.942, 64.950 201.093 M 398.750 273.749 C 414.837 273.904, 441.162 273.904, 457.250 273.749 C 473.337 273.595, 460.175 273.469, 428 273.469 C 395.825 273.469, 382.662 273.595, 398.750 273.749 M 47.507 289.996 C 47.830 294.378, 48.881 299.188, 50.037 301.576 C 51.173 303.922, 58.476 312.119, 67.208 320.847 L 82.402 336.035 76.451 342.268 L 70.501 348.500 77.325 342 C 81.079 338.425, 84.822 334.225, 85.643 332.667 L 87.137 329.834 69.791 312.167 C 60.250 302.450, 51.746 292.925, 50.891 291 C 46.910 282.028, 46.920 282.031, 47.507 289.996 M 523.175 286.554 C 522.837 290.520, 517.152 297.652, 501.039 314.319 L 484.780 331.137 487.064 333.569 C 488.321 334.906, 489.475 336, 489.630 336 C 489.997 336, 505.867 320.047, 513.250 312.256 C 516.413 308.919, 519 305.696, 519 305.094 C 519 304.493, 519.437 304, 519.972 304 C 521.543 304, 524.152 293.452, 523.734 288.790 C 523.523 286.430, 523.271 285.424, 523.175 286.554 M 1079.469 373.500 C 1079.469 406.500, 1079.596 419.855, 1079.750 403.178 C 1079.904 386.501, 1079.903 359.501, 1079.749 343.178 C 1079.595 326.855, 1079.469 340.500, 1079.469 373.500 M 87.500 354.633 C 81.450 360.425, 75.600 365.527, 74.500 365.969 C 73.303 366.450, 71.238 366.255, 69.355 365.481 C 67.059 364.538, 65.912 364.488, 65.105 365.295 C 62.958 367.442, 64.379 374.217, 67.400 376.235 C 68.005 376.639, 69.936 376.976, 71.691 376.985 C 74.877 377, 78.949 373.713, 93.751 359.175 C 98.562 354.450, 100.108 354.108, 103.107 357.107 L 105.214 359.214 100.857 363.910 C 98.461 366.493, 99.537 365.548, 103.250 361.809 C 106.963 358.071, 110 354.550, 110 353.984 C 110 352.215, 101.829 343.997, 100.123 344.051 C 99.230 344.078, 93.550 348.840, 87.500 354.633 M 467.703 347.792 C 462.671 352.945, 462.916 355.102, 469.250 361.377 C 472.137 364.238, 472.831 364.761, 470.791 362.539 L 467.083 358.500 469.245 356.750 C 470.434 355.788, 471.833 355, 472.353 355 C 472.873 355, 478.069 359.664, 483.899 365.365 C 496.073 377.267, 497.269 378.070, 501.168 376.952 C 505.408 375.736, 507 373.600, 507 369.130 C 507 365.155, 505.721 363.025, 504.510 364.984 C 504.165 365.543, 502.181 366, 500.102 366 C 496.626 366, 495.439 365.117, 485.311 355 C 479.255 348.950, 473.649 344, 472.853 344 C 472.057 344, 469.740 345.706, 467.703 347.792 M 444.329 371.518 C 441.948 374.002, 440 376.509, 440 377.088 C 440 377.667, 443.938 382.063, 448.750 386.858 C 453.563 391.652, 454.603 392.536, 451.062 388.823 L 444.625 382.072 446.467 380.036 C 447.481 378.916, 448.819 378, 449.442 378 C 450.064 378, 455.420 382.920, 461.344 388.933 C 473.626 401.400, 476.047 402.588, 481.548 398.841 C 484.187 397.044, 484.984 395.803, 484.978 393.500 C 484.964 388.630, 483.730 387.455, 480.176 388.927 C 475.611 390.818, 471.660 388.392, 460.629 376.930 C 455.373 371.468, 450.529 367, 449.865 367 C 449.201 367, 446.709 369.033, 444.329 371.518 M 109.412 379.012 C 97.482 390.835, 95.530 391.778, 90.755 388.022 L 88.241 386.044 87.621 389.147 C 86.580 394.352, 86.899 395.990, 89.455 398.545 C 91.046 400.137, 93.043 401, 95.135 401 C 97.928 401, 99.785 399.527, 109 390 C 114.852 383.950, 120.425 379, 121.386 379 C 123.833 379, 127 380.841, 127 382.263 C 127 382.919, 123.513 387.066, 119.251 391.478 C 112.641 398.321, 112.940 398.104, 121.287 390 C 126.668 384.775, 131.337 379.453, 131.663 378.173 C 132.120 376.380, 131.376 374.945, 128.425 371.923 C 126.318 369.765, 123.673 368.005, 122.547 368.012 C 121.290 368.019, 116.219 372.265, 109.412 379.012 M 422.208 394.288 C 419.894 396.646, 418 399.243, 418 400.059 C 418 400.874, 422.161 405.582, 427.247 410.521 C 433.918 416.997, 434.562 417.489, 429.560 412.286 L 422.625 405.072 424.489 403.012 C 425.515 401.878, 426.721 401.075, 427.169 401.226 C 427.617 401.377, 433.112 406.563, 439.380 412.750 C 449.983 423.218, 451.043 423.998, 454.637 423.968 C 456.762 423.951, 459.286 423.340, 460.247 422.610 C 462.476 420.918, 463.513 415.827, 462.147 413.275 C 461.568 412.192, 461.410 410.890, 461.797 410.382 C 462.184 409.874, 461.753 410.255, 460.840 411.229 C 459.807 412.330, 457.722 413, 455.323 413 C 451.737 413, 450.665 412.196, 440 401.500 C 433.693 395.175, 428.056 390, 427.475 390 C 426.893 390, 424.523 391.930, 422.208 394.288 M 142.833 391.750 C 142.650 392.163, 137.451 397.337, 131.280 403.250 C 119.122 414.900, 117.402 415.677, 112.433 411.768 C 110.872 410.541, 109.938 410.091, 110.357 410.768 C 110.776 411.446, 110.690 412, 110.167 412 C 109.645 412, 108.921 413.178, 108.560 414.617 C 107.686 418.101, 111.494 423.728, 115.291 424.563 C 119.015 425.382, 121.239 423.809, 133.219 411.879 C 138.675 406.446, 143.683 402, 144.347 402 C 145.012 402, 146.587 402.723, 147.849 403.607 C 150.005 405.117, 150.290 405.076, 152.572 402.933 C 153.907 401.678, 155 400.146, 155 399.529 C 155 397.579, 147.510 391, 145.291 391 C 144.123 391, 143.017 391.337, 142.833 391.750 M 398.986 417.515 L 393.539 423.029 406.012 435.265 C 414.518 443.609, 415.485 444.412, 409.052 437.790 L 399.618 428.079 401.464 426.040 C 402.479 424.918, 403.796 424, 404.391 424 C 404.985 424, 410.974 429.490, 417.700 436.199 C 429.142 447.614, 430.170 448.392, 433.680 448.292 C 438.382 448.159, 441 445.213, 441 440.056 C 441 435.318, 440.515 434.896, 437.051 436.624 C 435.094 437.601, 433.495 437.754, 431.861 437.123 C 430.563 436.621, 424.117 430.763, 417.538 424.105 C 410.958 417.447, 405.318 412, 405.004 412 C 404.689 412, 401.981 414.482, 398.986 417.515 M 153.075 425.503 C 140.604 437.561, 140.044 437.967, 137.324 436.933 C 135.773 436.343, 133.790 435.215, 132.918 434.426 C 131.731 433.351, 131.310 433.306, 131.240 434.246 C 131.189 434.936, 130.843 437.109, 130.471 439.075 C 129.561 443.887, 133.134 448.333, 137.910 448.333 C 140.701 448.333, 142.786 446.689, 153.333 436.167 C 160.041 429.475, 166.210 424, 167.042 424 C 167.875 424, 169.365 424.946, 170.355 426.102 L 172.155 428.203 174.577 425.927 C 175.910 424.676, 176.994 423.167, 176.986 422.576 C 176.962 420.756, 169.405 413, 167.655 413 C 166.749 413, 160.188 418.626, 153.075 425.503 M 176.158 447.500 C 162.671 461.325, 160.359 462.457, 155.755 457.491 C 153.783 455.365, 153.411 455.250, 153.312 456.741 C 153.248 457.709, 152.878 460.119, 152.491 462.098 C 151.890 465.172, 152.174 466.083, 154.439 468.348 C 159.845 473.754, 164.401 471.352, 179 455.396 C 182.575 451.489, 186.528 447.692, 187.785 446.958 C 189.806 445.779, 190.322 445.877, 192.259 447.815 L 194.449 450.004 186.974 457.815 C 182.863 462.111, 183.887 461.174, 189.250 455.734 C 194.613 450.293, 199 445.287, 199 444.608 C 199 443.041, 193.590 437.799, 192.681 438.486 C 192.306 438.769, 192.221 438.704, 192.491 438.342 C 193.168 437.436, 191.026 435, 189.554 435 C 188.893 435, 182.865 440.625, 176.158 447.500 M 377.180 439.578 C 374.881 441.546, 373 443.813, 373 444.617 C 373 445.420, 374.871 447.973, 377.158 450.289 C 379.445 452.605, 380.508 453.496, 379.520 452.269 C 378.051 450.444, 377.954 449.761, 378.984 448.519 C 379.678 447.683, 380.921 447, 381.748 447 C 382.574 447, 388.575 452.364, 395.082 458.919 C 401.589 465.474, 407.811 471.122, 408.907 471.470 C 411.551 472.310, 416.815 469.501, 418.169 466.528 C 418.771 465.206, 418.954 462.569, 418.581 460.580 L 417.911 457.006 415.145 459.051 C 410.968 462.139, 408.233 460.521, 395.572 447.466 C 389.456 441.160, 383.756 436, 382.906 436 C 382.056 436, 379.479 437.610, 377.180 439.578 M 198.696 469.438 C 187.399 481.068, 186.218 482, 182.785 482 C 180.233 482, 178.420 481.299, 176.965 479.750 C 175.803 478.512, 174.962 477.950, 175.095 478.500 C 175.228 479.050, 174.995 481.140, 174.577 483.145 C 173.651 487.586, 174.987 490.425, 178.973 492.486 C 180.989 493.528, 182.606 493.720, 184.217 493.107 C 185.499 492.620, 192.034 486.674, 198.741 479.892 L 210.935 467.563 213.783 470.292 L 216.632 473.021 218.816 470.696 C 221.690 467.636, 221.586 466.736, 217.863 462.497 C 211.834 455.630, 212.257 455.477, 198.696 469.438 M 355.684 461.906 C 353.108 464.661, 351 467.428, 351 468.057 C 351 468.685, 353.587 471.760, 356.750 474.891 C 359.913 478.021, 360.957 478.888, 359.072 476.817 L 355.644 473.051 357.477 471.025 C 358.485 469.911, 359.692 469, 360.159 469 C 360.625 469, 366.252 474.380, 372.662 480.955 C 385.138 493.753, 387.705 495.238, 392.793 492.607 C 396.010 490.944, 397.670 486.121, 396.061 483.114 C 395.503 482.071, 395.500 480.822, 396.054 479.946 C 396.558 479.151, 396.958 478.050, 396.945 477.500 C 396.931 476.950, 396.276 477.685, 395.489 479.134 C 393.797 482.249, 389.851 483.502, 386.729 481.916 C 385.503 481.293, 379.071 475.409, 372.434 468.841 L 360.369 456.898 355.684 461.906 M 220 492.500 C 213.142 499.375, 206.848 504.984, 206.015 504.965 C 205.182 504.945, 203.376 504.307, 202.003 503.547 C 198.791 501.770, 196.988 503.158, 197.033 507.372 C 197.076 511.402, 199.984 514.847, 204.025 515.655 C 207.064 516.263, 207.808 515.689, 219.609 503.647 C 226.424 496.691, 232.595 491, 233.320 491 C 234.046 491, 235.548 492.012, 236.659 493.250 C 240.654 497.702, 260.592 516.649, 264.818 520.010 C 278.371 530.789, 295.281 530.345, 307.502 518.890 C 309.981 516.567, 317.491 509.370, 324.190 502.897 C 334.975 492.476, 336.602 491.252, 338.396 492.212 C 339.511 492.808, 345.116 497.973, 350.852 503.689 C 356.589 509.404, 362.089 514.513, 363.075 515.040 C 367.906 517.626, 374 513.970, 374 508.486 C 374 506.634, 373.528 504.826, 372.951 504.470 C 372.243 504.032, 372.314 503.283, 373.171 502.161 C 373.869 501.247, 373.299 501.512, 371.905 502.750 C 366.921 507.175, 364.834 506.150, 351.039 492.500 C 344.090 485.625, 338.038 480, 337.590 480 C 337.141 480, 329.568 486.996, 320.762 495.547 C 303.888 511.930, 298.824 515.424, 290.320 516.552 C 284.465 517.329, 274.486 515.075, 269.082 511.755 C 267.112 510.545, 258.641 502.905, 250.258 494.777 C 241.874 486.650, 234.442 480, 233.743 480 C 233.043 480, 226.858 485.625, 220 492.500" stroke="none" fill="#a5c2cf" fill-rule="evenodd"/><path d="M 373 192.878 C 373 193.495, 373.399 194, 373.886 194 C 375.315 194, 377.896 200.294, 379.648 208.051 C 381.805 217.602, 380.441 228.203, 375.897 237.204 C 372.040 244.845, 368.448 248.493, 319.489 294.500 C 310.709 302.750, 298.570 314.250, 292.513 320.055 C 272.527 339.211, 256.831 353.794, 252.801 356.951 C 248.527 360.299, 239.598 363.866, 232.756 364.959 C 220.364 366.939, 206.501 362.561, 196.750 353.588 C 194.120 351.167, 192 349.838, 192 350.608 C 192 351.374, 192.450 352, 193 352 C 193.550 352, 194 352.675, 194 353.500 C 194 354.325, 194.900 355.900, 196 357 C 197.100 358.100, 198 359.525, 198 360.167 C 198 360.808, 198.297 361.036, 198.661 360.673 C 199.024 360.309, 199.812 360.971, 200.411 362.144 C 201.010 363.316, 201.827 364.225, 202.226 364.163 C 202.626 364.102, 204.145 365.156, 205.602 366.507 C 207.059 367.858, 208.607 368.743, 209.040 368.475 C 209.474 368.207, 209.980 368.407, 210.165 368.919 C 210.349 369.431, 211.175 369.996, 212 370.175 C 212.825 370.354, 213.733 370.808, 214.019 371.185 C 214.304 371.561, 215.750 372.032, 217.231 372.230 C 218.712 372.429, 220.241 372.908, 220.629 373.296 C 221.802 374.469, 242 374.134, 242 372.941 C 242 372.359, 242.394 372.125, 242.875 372.423 C 244.089 373.173, 253.115 369.994, 252.517 369.027 C 252.251 368.596, 253.336 367.983, 254.928 367.664 C 256.521 367.346, 258.968 365.941, 260.366 364.543 C 261.765 363.144, 263.455 362, 264.121 362 C 264.788 362, 265.036 361.703, 264.673 361.339 C 264.309 360.976, 265.022 360.152, 266.256 359.508 C 267.490 358.863, 268.376 357.777, 268.225 357.094 C 268.074 356.410, 268.351 356.099, 268.842 356.402 C 270.022 357.132, 273.220 353.553, 272.252 352.586 C 271.838 352.172, 271.950 351.975, 272.500 352.149 C 274.158 352.673, 305.721 322.396, 305.225 320.758 C 305.074 320.259, 305.315 320.077, 305.761 320.352 C 306.941 321.081, 320 307.593, 320 305.646 C 320 304.741, 320.477 304, 321.059 304 C 321.641 304, 321.794 304.563, 321.398 305.250 C 321.002 305.938, 331.325 295.810, 344.339 282.745 C 357.353 269.679, 368 258.317, 368 257.495 C 368 256.673, 368.695 256, 369.545 256 C 371.303 256, 376 251.644, 376 250.014 C 376 249.422, 376.672 248.679, 377.494 248.364 C 378.316 248.048, 378.740 247.388, 378.435 246.895 C 378.131 246.403, 378.385 246, 379 246 C 379.615 246, 379.840 245.550, 379.500 245 C 379.160 244.450, 379.385 244, 380 244 C 380.615 244, 380.864 243.588, 380.553 243.085 C 380.242 242.582, 380.436 242.020, 380.985 241.835 C 381.534 241.651, 382.085 240.262, 382.209 238.750 C 382.334 237.238, 382.788 236, 383.218 236 C 383.648 236, 384 230.331, 384 223.402 L 384 210.805 379.924 202.462 C 376.041 194.513, 373 190.304, 373 192.878" stroke="none" fill="#cead48" fill-rule="evenodd"/><path d="M 281.219 58.337 C 279.964 59.034, 279.251 59.918, 279.635 60.302 C 280.019 60.686, 279.808 61, 279.167 61 C 277.281 61, 277.837 67.237, 280.014 70.500 C 281.918 73.354, 282.013 75.105, 281.956 106.455 L 281.895 139.409 271.698 149.792 C 266.089 155.502, 261.650 160.698, 261.833 161.337 C 262.017 161.977, 261.832 162.166, 261.424 161.757 C 261.015 161.349, 257.040 164.595, 252.590 168.972 C 246.897 174.572, 244.130 178.120, 243.250 180.949 C 242.422 183.611, 242 191.860, 242 205.373 C 242 224.079, 242.161 225.975, 243.937 228.139 C 245.446 229.978, 246.246 230.273, 247.555 229.474 C 249.039 228.569, 249.261 225.798, 249.451 205.819 C 249.622 187.899, 249.961 182.876, 251.083 181.680 C 251.863 180.849, 258.800 173.672, 266.500 165.731 C 274.200 157.790, 282.300 149.337, 284.500 146.946 L 288.500 142.600 289 106.882 L 289.500 71.165 291.750 69.215 C 294.371 66.944, 294.561 64.986, 292.540 61.077 C 290.486 57.105, 285.578 55.917, 281.219 58.337 M 308.278 79.348 C 307.056 79.954, 305.521 81.742, 304.867 83.320 C 303.830 85.824, 304.018 86.860, 306.339 91.445 L 309 96.700 309.014 133.600 C 309.021 153.895, 309.299 171.512, 309.630 172.750 C 310.378 175.540, 311.377 175.585, 313.842 172.939 C 315.514 171.144, 315.772 169.258, 315.837 158.316 C 315.879 151.407, 316.137 145.530, 316.411 145.255 C 317.039 144.628, 338.800 144.928, 341.500 145.601 C 342.600 145.876, 344.398 147.956, 345.496 150.224 C 348.129 155.667, 349.317 156.739, 354.158 158.042 C 364.295 160.772, 372.780 154.780, 373.333 144.500 C 373.588 139.760, 368.808 132, 365.634 132 C 364.735 132, 364 131.550, 364 131 C 364 129.447, 353.078 129.779, 351.476 131.381 C 350.717 132.140, 350.374 133.040, 350.714 133.381 C 351.055 133.721, 350.653 134, 349.822 134 C 348.990 134, 347.495 134.900, 346.500 136 C 344.850 137.823, 343.420 138, 330.345 138 L 316 138 316 116.153 C 316 95.741, 316.131 94.155, 318 92 C 319.257 90.551, 320 88.259, 320 85.832 C 320 82.549, 319.514 81.674, 316.750 79.989 C 313.179 77.812, 311.613 77.693, 308.278 79.348 M 244.247 93.884 C 240.062 95.029, 236.161 99.741, 235.445 104.519 C 235.077 106.969, 235.032 109.993, 235.345 111.237 C 235.657 112.482, 235.918 113.855, 235.925 114.288 C 235.938 115.191, 241.445 120, 242.466 120 C 244.598 120, 245.700 123.248, 245.901 130.127 L 246.122 137.718 237.811 145.900 C 231.387 152.224, 228.528 154.328, 225.218 155.168 C 220.128 156.458, 218 159.107, 218 164.150 C 218 168.497, 221.569 172, 225.998 172 C 229.618 172, 234 167.581, 234 163.931 C 234 161.820, 235.978 159, 242.073 152.422 C 252.922 140.711, 252.907 140.740, 252.613 132.500 C 252.307 123.947, 253.035 121.683, 256.805 119.456 C 262.817 115.904, 264.802 108.249, 261.660 100.728 C 260.797 98.662, 259.282 96.666, 258.295 96.292 C 257.308 95.918, 255.959 95.078, 255.297 94.424 C 254.015 93.159, 247.976 92.863, 244.247 93.884 M 246.364 101.170 C 244.213 102.211, 242 105.916, 242 108.474 C 242 110.400, 246.830 114, 249.412 114 C 255.751 114, 258.368 106.420, 253.492 102.180 C 250.740 99.787, 249.564 99.620, 246.364 101.170 M 353.250 139.496 C 351.891 141.039, 351.583 146.829, 352.765 148.600 C 355.648 152.918, 362.948 151.953, 365.007 146.982 C 366.046 144.474, 365.918 143.694, 364.034 141.047 C 362.275 138.577, 361.167 138.007, 358.182 138.038 C 356.157 138.059, 353.938 138.715, 353.250 139.496 M 180.216 162.009 C 178.410 163.111, 176.636 164.796, 176.272 165.756 C 175.909 166.715, 175.056 168.063, 174.376 168.751 C 172.955 170.190, 173.096 179.772, 174.553 180.819 C 175.074 181.194, 175.994 182.393, 176.599 183.484 C 177.203 184.575, 180.001 186.600, 182.815 187.984 L 187.934 190.500 187.967 196.750 C 187.985 200.228, 188.444 203, 189 203 C 189.550 203, 190 203.730, 190 204.623 C 190 205.987, 225.469 242, 226.813 242 C 227.062 242, 228.010 242.858, 228.920 243.907 C 230.576 245.817, 232.052 246.340, 235.164 246.118 C 239.018 245.844, 234.620 240.171, 215.737 221.063 C 204.868 210.063, 195.543 199.929, 195.016 198.541 C 193.998 195.865, 195.131 187.229, 196.644 186.124 C 198.585 184.709, 202 177.007, 202 174.048 C 202 169.238, 200.425 166.717, 194.615 162.229 C 190.926 159.379, 184.687 159.284, 180.216 162.009 M 183.675 169.250 C 182.735 169.938, 181.776 172.010, 181.543 173.855 C 180.966 178.422, 184.411 182.025, 188.595 181.230 C 194.266 180.153, 195.880 173.996, 191.492 170.180 C 188.658 167.715, 186.175 167.420, 183.675 169.250 M 327.056 179.546 C 320.503 181.141, 314 183.962, 314 185.211 C 314 185.710, 313.550 185.840, 313 185.500 C 312.450 185.160, 312 185.434, 312 186.108 C 312 186.782, 311.715 187.048, 311.366 186.700 C 311.018 186.351, 304.411 192.351, 296.685 200.033 C 288.959 207.715, 282.471 214, 282.266 214 C 281.328 214, 264 231.800, 264 232.764 C 264 233.363, 263.360 233.999, 262.578 234.177 C 260.058 234.750, 221.865 272.972, 222.609 274.176 C 223.041 274.876, 222.861 275.032, 222.139 274.586 C 220.810 273.765, 199.918 294.246, 195.967 300.243 C 194.610 302.302, 193.162 303.989, 192.750 303.993 C 192.338 303.997, 192 304.900, 192 306 C 192 307.100, 191.608 308, 191.130 308 C 190.213 308, 187.696 315.892, 188.088 317.538 C 188.214 318.067, 187.961 319.320, 187.524 320.322 C 186.449 322.791, 187.563 338.563, 189.156 343.423 C 192.088 352.368, 207.164 362.869, 220.021 364.923 C 230.730 366.634, 244.811 363.209, 252.801 356.951 C 256.831 353.794, 272.527 339.211, 292.513 320.055 C 298.570 314.250, 310.709 302.750, 319.489 294.500 C 368.376 248.562, 372.044 244.837, 375.871 237.255 C 383.716 221.715, 381.832 202.869, 371.244 190.966 C 367.191 186.410, 357.858 180.475, 356.648 181.685 C 356.292 182.042, 356 181.846, 356 181.250 C 356 178.257, 336.959 177.136, 327.056 179.546 M 278.229 180.669 C 276.632 181.312, 274 186.312, 274.001 188.700 C 274.002 189.690, 275.146 191.829, 276.543 193.454 C 278.548 195.786, 279.893 196.403, 282.932 196.385 C 287.526 196.359, 289.917 194.287, 290.664 189.684 C 291.037 187.383, 290.708 185.851, 289.603 184.745 C 288.721 183.864, 288 182.717, 288 182.196 C 288 180.645, 281.005 179.552, 278.229 180.669 M 324.003 191.745 C 323.179 192.067, 320.307 194.394, 317.621 196.916 C 314.934 199.437, 311.062 203.075, 309.017 205 C 306.971 206.925, 299.293 214.125, 291.953 221 C 284.613 227.875, 275.828 236.200, 272.430 239.500 C 266.673 245.091, 254.194 256.865, 234.112 275.653 C 216.021 292.578, 205 304.036, 205 305.919 C 205 308.352, 207.575 311, 209.941 311 C 212.414 311, 221.161 303.292, 243.988 281 C 249.338 275.775, 258.284 267.225, 263.867 262 C 269.451 256.775, 277.572 249.125, 281.915 245 C 286.258 240.875, 295.327 232.325, 302.068 226 C 327.833 201.827, 332.193 197.186, 331.430 194.743 C 330.344 191.263, 327.826 190.246, 324.003 191.745 M 134.453 203.272 C 129.997 205.508, 128.633 213.156, 132.039 216.811 C 135.084 220.080, 144 219.121, 144 215.525 C 144 214.272, 145.560 214.006, 152.750 214.035 C 157.719 214.056, 162.415 214.596, 163.616 215.285 C 166.357 216.858, 173.545 222.838, 176.327 225.860 C 179.956 229.802, 185.458 235.324, 189.074 238.655 C 190.958 240.390, 194.586 243.990, 197.136 246.655 C 207.724 257.723, 214.697 264, 216.402 264 C 217.602 264, 218.020 263.493, 217.638 262.500 C 217.322 261.675, 217.457 261, 217.938 261 C 220.632 261, 215.435 255.066, 193.180 232.728 L 168.500 207.957 156.622 207.081 C 150.090 206.599, 144.465 205.822, 144.122 205.353 C 143.144 204.012, 139.157 201.987, 137.764 202.123 C 137.069 202.190, 135.579 202.708, 134.453 203.272 M 420.500 205.216 C 416.827 207.336, 416 208.825, 416 213.315 C 416 217.416, 416.276 217.903, 419.462 219.415 C 421.582 220.421, 423.929 220.805, 425.519 220.406 C 431.922 218.799, 433.331 207.839, 427.477 205.171 C 424.312 203.729, 423.060 203.737, 420.500 205.216 M 444.622 229.629 C 440.950 230.912, 436.147 234.988, 435.875 237.052 C 435.806 237.573, 435.694 238.412, 435.625 238.917 C 435.556 239.421, 435.163 240.171, 434.750 240.583 C 434.337 240.996, 434 242.158, 434 243.167 C 434 244.877, 432.740 245.005, 415.250 245.070 C 396.177 245.142, 393.720 245.452, 393.215 247.855 C 392.431 251.582, 394.654 252, 415.236 252 C 432.986 252, 435.635 252.214, 438.864 253.912 C 446.302 257.823, 449.776 258.411, 454.283 256.523 C 459.438 254.363, 462.312 250.285, 462.796 244.442 C 463.468 236.339, 459.156 229.950, 452.816 229.655 C 450.992 229.570, 449.275 229.224, 449 228.887 C 448.725 228.549, 446.755 228.883, 444.622 229.629 M 102.635 238.073 C 97.933 241.771, 99.715 249.696, 105.785 252.080 C 107.566 252.779, 109.280 252.295, 113.552 249.884 L 119.033 246.790 130.767 247.180 L 142.500 247.569 145.856 250.785 C 149.630 254.401, 151.191 254.654, 156.378 252.487 C 159.845 251.038, 160 250.762, 160 246.055 C 160 241.751, 159.632 240.874, 157.054 239.039 C 153.904 236.795, 151.783 236.858, 145.898 239.367 C 143.917 240.212, 140.992 240.751, 139.398 240.566 C 137.804 240.380, 131.747 240.177, 125.939 240.114 C 116.855 240.016, 115.077 239.720, 113.230 238 C 110.460 235.419, 105.969 235.450, 102.635 238.073 M 444.635 238.073 C 441.589 240.469, 441.230 243.895, 443.640 247.574 C 445.020 249.680, 445.965 250.042, 449.586 249.855 C 451.953 249.732, 453.695 249.316, 453.456 248.929 C 453.217 248.543, 453.692 247.671, 454.511 246.991 C 455.330 246.311, 456 244.454, 456 242.863 C 456 240.673, 455.211 239.489, 452.750 237.989 C 448.675 235.505, 447.889 235.513, 444.635 238.073 M 72.250 270.525 C 69.180 273.804, 69.129 280.510, 72.153 283.133 C 74.999 285.601, 78.469 285.491, 82.830 282.796 L 86.395 280.593 141.948 280.272 C 172.501 280.095, 198.542 279.962, 199.816 279.975 C 201.758 279.996, 202.082 279.555, 201.816 277.250 L 201.500 274.500 143.941 274 L 86.381 273.500 83.114 270.750 C 79.115 267.384, 75.266 267.304, 72.250 270.525 M 492.500 269.319 C 491.400 269.968, 490.275 270.770, 490 271.100 C 487.759 273.791, 483.224 274, 427.148 274 C 395.256 274, 368.452 274.273, 367.582 274.607 C 366.712 274.941, 366 276.291, 366 277.607 L 366 280 383.250 280.033 C 392.738 280.052, 411.300 280.034, 424.500 279.995 C 437.700 279.955, 457.437 280.235, 468.359 280.616 C 486.814 281.261, 488.370 281.461, 490.359 283.447 C 492.918 286.003, 497.484 285.490, 500.953 282.259 C 503.678 279.719, 504.117 277.253, 502.434 273.927 C 500.074 269.263, 495.884 267.320, 492.500 269.319 M 349.195 294.060 C 348.023 295.936, 348.524 296.759, 354.823 303.310 C 358.627 307.264, 362.247 311.483, 362.869 312.684 C 363.491 313.886, 364 318.109, 364 322.069 L 364 329.270 379.323 344.593 L 394.646 359.916 406.672 360.778 C 416.938 361.514, 419.040 361.959, 421.037 363.820 C 423.420 366.040, 428 366.816, 428 365 C 428 364.450, 428.828 364, 429.839 364 C 431.919 364, 434 360.175, 434 356.354 C 434 353.632, 428.864 348, 426.381 348 C 424.665 348, 421.307 349.891, 418.834 352.250 C 417.398 353.620, 415.250 354, 408.934 354 C 404.498 354, 399.958 353.513, 398.845 352.917 C 396.462 351.642, 377.747 332.881, 374.503 328.515 C 371.764 324.829, 370.665 320.802, 370.930 315.418 C 371.140 311.136, 367.843 304.003, 365.651 303.997 C 365.018 303.996, 363.600 302.647, 362.500 301 C 361.400 299.353, 360.166 298.004, 359.759 298.003 C 359.351 298.001, 357.727 296.650, 356.150 295 C 352.782 291.475, 350.962 291.229, 349.195 294.060 M 122 297.737 C 117.713 298.148, 112 300.998, 112 302.727 C 112 303.427, 111.622 304, 111.161 304 C 109.875 304, 108 308.746, 108 312 C 108 315.254, 109.875 320, 111.161 320 C 111.622 320, 112 320.623, 112 321.385 C 112 324.969, 121.664 327.926, 127.299 326.066 C 131.261 324.759, 136 319.886, 136 317.119 C 136 316.076, 136.860 314.159, 137.911 312.861 L 139.822 310.500 158.647 310.288 C 174.756 310.106, 177.644 309.840, 178.667 308.441 C 179.325 307.541, 179.620 306.174, 179.324 305.403 C 178.887 304.263, 174.975 304, 158.427 304 L 138.069 304 131.784 300.701 C 127.317 298.356, 124.488 297.499, 122 297.737 M 118.998 306.798 C 116.513 308.001, 116 308.850, 116 311.758 C 116 314.104, 116.713 315.884, 118.153 317.133 C 123.928 322.142, 131.466 316.504, 128.887 309.104 C 127.662 305.591, 123.496 304.619, 118.998 306.798 M 447.316 305.770 C 446.114 305.963, 442.837 308.344, 440.034 311.061 L 434.936 316 425.106 316 C 415.688 316, 415.116 315.874, 411.500 313 C 407.833 310.085, 404.829 309.361, 401.582 310.607 C 400.712 310.941, 400 311.648, 400 312.178 C 400 312.709, 399.279 313.864, 398.397 314.745 C 396.437 316.705, 397.098 322.345, 399.612 325.124 C 401.602 327.323, 407.221 327.636, 409.199 325.658 C 412.113 322.744, 415.215 322, 424.444 322 C 432.958 322, 434.213 322.233, 435.760 324.103 C 442.771 332.575, 443.579 333.198, 448.243 333.724 C 454.512 334.431, 457.476 333.531, 460.991 329.852 C 464.089 326.610, 465.427 322.244, 464.622 318 C 464.362 316.625, 464.115 315.007, 464.074 314.406 C 463.964 312.778, 459.847 308.424, 457.056 306.984 C 454.454 305.640, 450.881 305.195, 447.316 305.770 M 446.153 314.867 C 441.675 318.751, 444.856 326.333, 450.964 326.333 C 453.249 326.333, 454.802 325.602, 456.098 323.917 C 458.509 320.780, 458.469 318.866, 455.927 315.635 C 453.443 312.476, 449.286 312.150, 446.153 314.867 M 324.974 319.049 C 323.985 320.896, 326.260 323.491, 347.938 345.248 L 372 369.397 372 374.708 C 372 378.986, 371.572 380.358, 369.800 381.760 C 365.079 385.495, 362.011 389.301, 361.119 392.529 C 358.269 402.852, 368.502 413.011, 378.780 410.063 C 382.338 409.043, 388.186 404.110, 387.382 402.809 C 387.107 402.364, 387.385 402, 388 402 C 388.615 402, 388.840 401.550, 388.500 401 C 388.160 400.450, 388.359 400, 388.941 400 C 389.523 400, 390 398.337, 390 396.304 C 390 392.031, 386.711 386.724, 381.475 382.549 C 378.125 379.878, 378 379.536, 378 373.024 C 378 367.574, 377.570 365.713, 375.776 363.385 C 370.283 356.261, 329.881 317, 328.043 317 C 326.958 317, 325.577 317.922, 324.974 319.049 M 310.392 333.422 C 309.676 335.287, 311.538 338.655, 315.683 342.990 C 317.528 344.921, 319.309 347.536, 319.641 348.803 C 320.441 351.859, 319.387 381.953, 318.392 384.476 C 317.337 387.151, 314.830 389.910, 298.320 406.565 C 290.521 414.432, 283.659 421.769, 283.070 422.869 C 282.385 424.148, 282 434.630, 282 451.974 C 282 477.106, 281.854 479.365, 280 483 C 277.893 487.131, 277.306 493, 279 493 C 279.550 493, 280 493.625, 280 494.389 C 280 496.242, 286.062 497.307, 289.395 496.040 C 290.847 495.488, 292.498 493.819, 293.064 492.332 C 293.908 490.113, 293.645 488.769, 291.597 484.821 L 289.103 480.013 288.953 454.257 C 288.871 440.091, 289.156 427.600, 289.586 426.500 C 290.015 425.400, 298.047 416.720, 307.434 407.210 C 316.820 397.701, 324.349 389.651, 324.165 389.322 C 323.980 388.993, 324.430 388.352, 325.165 387.897 C 326.213 387.249, 326.500 382.367, 326.500 365.223 L 326.500 343.376 320.901 337.688 C 315.326 332.024, 311.521 330.479, 310.392 333.422 M 151.983 338.202 C 145.646 340.546, 143.761 347.548, 148.314 351.826 C 153.213 356.427, 162 353.169, 162 346.751 C 162 343.097, 160.205 338.755, 159.002 339.499 C 158.451 339.839, 158 339.694, 158 339.176 C 158 337.728, 154.706 337.195, 151.983 338.202 M 284.838 358.217 C 281.544 359.320, 278.687 364.904, 279.586 368.485 C 280.790 373.282, 288.233 375.808, 292 372.698 C 295.294 369.979, 296.239 366.994, 294.869 363.641 C 292.651 358.215, 289.665 356.601, 284.838 358.217 M 257.250 383.031 C 255.249 383.836, 254.985 384.685, 254.861 390.718 C 254.622 402.428, 254.535 403.049, 253 404.020 C 252.175 404.542, 245.607 404.976, 238.405 404.985 C 226.977 404.998, 225.099 404.767, 223.655 403.171 C 222.745 402.165, 222 400.815, 222 400.171 C 222 399.527, 221.550 399, 221 399 C 220.450 399, 220 398.318, 220 397.485 C 220 395.188, 213.988 392.008, 209.636 392.004 C 201.762 391.996, 194 399.106, 194 406.325 C 194 410.357, 195.205 413.037, 198.891 417.201 C 203.799 422.748, 213.655 422.151, 220.216 415.910 L 224.378 411.950 239.439 412.225 L 254.500 412.500 254.770 433.317 C 255.042 454.245, 254.356 460.501, 251.474 463.384 C 249.665 465.192, 249.542 470.685, 251.271 472.413 C 255.347 476.489, 259.443 476.906, 263.250 473.632 C 266.492 470.844, 266.700 468.130, 264.101 462.566 C 262.375 458.872, 262.155 455.117, 261.695 421.532 C 261.345 395.930, 260.851 384.450, 260.088 384.196 C 259.483 383.994, 259.242 383.418, 259.553 382.915 C 260.212 381.847, 260.192 381.848, 257.250 383.031 M 370 392 C 367.581 394.419, 367.463 396.788, 369.607 399.849 C 371.881 403.096, 374.972 404.029, 378.123 402.419 C 379.566 401.683, 381.014 401.348, 381.342 401.675 C 381.669 402.003, 381.741 401.249, 381.500 400 C 380.947 397.130, 380.580 396.784, 377.782 396.493 C 376.527 396.362, 375.163 396.198, 374.750 396.128 C 374.337 396.057, 374 394.650, 374 393 C 374 389.504, 372.796 389.204, 370 392 M 205.750 400.689 C 204.787 400.941, 204 401.590, 204 402.132 C 204 402.674, 203.640 402.896, 203.200 402.624 C 202.760 402.352, 202.296 403.681, 202.168 405.578 C 201.997 408.119, 202.590 409.681, 204.422 411.513 C 207.601 414.692, 210.649 414.670, 213.635 411.448 C 216.545 408.309, 216.619 406.057, 213.927 402.635 C 211.950 400.121, 209.843 399.620, 205.750 400.689 M 329.783 403.750 C 328.944 404.712, 327.524 407.755, 326.627 410.511 C 325.731 413.268, 323.920 416.686, 322.602 418.107 C 321.201 419.617, 319.718 423.039, 319.032 426.345 C 318.386 429.455, 317.328 432.001, 316.679 432.001 C 315.078 432.003, 310.579 436.001, 309.157 438.684 C 305.684 445.241, 310.503 458, 316.452 458 C 317.239 458, 318.160 458.450, 318.500 459 C 318.840 459.550, 320.464 460, 322.109 460 C 326.814 460, 335.658 454.874, 334.417 452.866 C 334.123 452.390, 334.359 452, 334.941 452 C 335.578 452, 336 449.396, 336 445.460 C 336 439.140, 335.865 438.788, 331.960 434.960 C 329.737 432.782, 327.583 431, 327.172 431 C 326.762 431, 326.315 429.545, 326.179 427.767 C 325.984 425.212, 326.602 423.949, 329.126 421.746 C 330.882 420.213, 333.485 418.715, 334.910 418.418 C 340.906 417.167, 342.500 415.465, 342.500 410.313 C 342.500 406.996, 342.111 405.578, 341.250 405.750 C 340.563 405.887, 340.053 405.663, 340.118 405.250 C 340.534 402.620, 339.683 402, 335.655 402 C 332.765 402, 330.799 402.586, 329.783 403.750 M 318.750 439.581 C 313.133 442.610, 316.303 452, 322.943 452 C 328.540 452, 330.903 445.049, 326.750 440.802 C 323.958 437.945, 322.262 437.686, 318.750 439.581" stroke="none" fill="#f8db7d" fill-rule="evenodd"/><path d="M 273.094 40.536 C 269.067 42.411, 263.543 47.128, 251.443 59.026 C 242.508 67.812, 234.837 75, 234.396 75 C 233.955 75, 227.910 69.375, 220.961 62.500 C 206.827 48.515, 205.112 47.734, 199.923 52.923 C 194.762 58.084, 195.459 59.460, 211.672 76.101 C 217.352 81.931, 222 87.041, 222 87.457 C 222 88.784, 215.879 95.994, 213.813 97.100 C 212.061 98.038, 210.285 96.657, 199.007 85.583 C 187.493 74.278, 185.834 73, 182.668 73 C 178.499 73, 175 76.663, 175 81.027 C 175 83.882, 176.255 85.447, 191.422 101.500 C 195.579 105.900, 198.984 109.962, 198.990 110.528 C 199 111.507, 198.150 112.363, 191.689 117.880 L 188.878 120.280 176.103 107.640 C 165.434 97.084, 162.832 95, 160.319 95 C 156.746 95, 154.262 97.439, 153.389 101.804 C 152.578 105.861, 153.298 106.899, 166.361 120.500 C 172.171 126.550, 176.942 131.988, 176.963 132.584 C 177.017 134.156, 169.545 142, 167.993 142 C 167.270 142, 161.200 136.584, 154.504 129.964 C 144.775 120.346, 141.624 117.813, 138.820 117.358 C 135.832 116.873, 134.991 117.196, 133.156 119.529 C 130.655 122.709, 130.423 126.649, 132.570 129.500 C 133.398 130.600, 138.453 136, 143.802 141.500 C 157.611 155.696, 156.881 154.089, 151.947 159.442 C 149.636 161.949, 147.287 164, 146.727 164 C 146.168 164, 140.211 158.649, 133.491 152.109 C 119.863 138.847, 116.619 137.130, 112.503 140.997 C 109.385 143.926, 108.637 147.412, 110.408 150.759 C 111.206 152.266, 116.421 158, 121.997 163.500 C 127.573 169, 132.599 174.341, 133.166 175.369 C 134.027 176.929, 133.358 178.087, 129.107 182.391 L 124.017 187.545 111.150 174.773 C 100.216 163.920, 97.816 162, 95.180 162 C 91.563 162, 88.394 164.929, 87.473 169.123 C 86.630 172.960, 88.547 175.478, 102.210 188.478 L 113.413 199.138 107.957 204.026 C 104.955 206.714, 102.039 208.933, 101.477 208.957 C 100.914 208.981, 96.864 205.352, 92.477 200.893 C 76.672 184.830, 71.431 182.095, 67.073 187.635 C 62.900 192.939, 63.913 195.071, 77 208.541 C 83.600 215.333, 89 221.171, 89 221.514 C 89 221.857, 81.160 230.203, 71.577 240.062 C 50.482 261.764, 48.500 265.023, 48.500 278 C 48.500 284.441, 48.978 287.469, 50.472 290.500 C 51.557 292.700, 60.254 302.453, 69.798 312.174 C 86.190 328.870, 87.084 329.977, 85.929 332.174 C 85.256 333.453, 80.272 339.119, 74.853 344.764 C 66.777 353.177, 65 355.578, 65 358.080 C 65 359.758, 65.441 361.955, 65.979 362.961 C 67.158 365.164, 71.836 366.946, 74.225 366.101 C 75.174 365.766, 81.102 360.656, 87.399 354.746 C 93.696 348.836, 99.500 344, 100.296 344 C 101.919 344, 110 352.355, 110 354.032 C 110 354.624, 105.810 359.471, 100.688 364.804 C 85.502 380.618, 84.838 381.991, 89.923 387.077 C 95.005 392.159, 96.923 391.366, 109.456 379 C 116.142 372.404, 121.404 368, 122.600 368 C 125.075 368, 132 374.931, 132 377.408 C 132 378.411, 127.079 384.273, 121.065 390.434 C 114.781 396.871, 109.834 402.813, 109.435 404.405 C 108.587 407.782, 111.383 412.029, 115.392 413.457 C 119.022 414.750, 120.670 413.629, 133.349 401.250 C 139.124 395.612, 144.691 391, 145.721 391 C 147.633 391, 155 397.794, 155 399.556 C 155 400.091, 149.600 406.254, 143 413.253 C 132.577 424.304, 131 426.418, 131 429.333 C 131 432.994, 132.868 435.239, 137.324 436.933 C 140.044 437.967, 140.604 437.561, 153.075 425.503 C 160.188 418.626, 166.749 413, 167.655 413 C 169.380 413, 176.961 420.744, 176.986 422.531 C 176.994 423.098, 171.600 429.310, 165 436.335 C 151.806 450.379, 150.939 452.298, 155.540 457.260 C 160.386 462.485, 162.528 461.471, 176.158 447.500 C 182.865 440.625, 188.819 435, 189.389 435 C 190.855 435, 199 443.166, 199 444.637 C 199 445.308, 194.359 450.726, 188.687 456.678 C 183.015 462.630, 177.615 468.613, 176.687 469.973 C 172.855 475.588, 176.106 482, 182.785 482 C 186.218 482, 187.399 481.068, 198.696 469.438 C 209.254 458.569, 211.157 457.014, 212.812 457.900 C 215.338 459.251, 221 465.742, 221 467.285 C 221 467.953, 215.837 473.996, 209.528 480.712 C 197.819 493.178, 195.979 496.225, 197.945 499.897 C 199.092 502.041, 203.888 505, 206.215 505 C 206.938 505, 213.142 499.375, 220 492.500 C 226.858 485.625, 233.043 480, 233.743 480 C 234.442 480, 241.874 486.650, 250.258 494.777 C 258.641 502.905, 267.112 510.545, 269.082 511.755 C 274.486 515.075, 284.465 517.329, 290.320 516.552 C 298.824 515.424, 303.888 511.930, 320.762 495.547 C 329.568 486.996, 337.141 480, 337.590 480 C 338.038 480, 344.090 485.625, 351.039 492.500 C 361.545 502.896, 364.175 505, 366.662 505 C 370.097 505, 373.406 501.901, 374.383 497.769 C 375.110 494.695, 373.782 492.945, 359.292 477.879 C 354.731 473.137, 351 468.730, 351 468.086 C 351 467.442, 353.108 464.661, 355.684 461.906 L 360.369 456.898 372.434 468.841 C 379.071 475.409, 385.503 481.293, 386.729 481.916 C 391.411 484.294, 397 479.997, 397 474.018 C 397 472.747, 392.332 466.888, 385 458.959 C 378.400 451.821, 373 445.345, 373 444.569 C 373 442.782, 380.840 436, 382.906 436 C 383.756 436, 389.456 441.160, 395.572 447.466 C 407.181 459.436, 410.670 461.782, 414.119 459.936 C 416.347 458.744, 419.991 453.255, 419.996 451.083 C 419.998 450.304, 414.051 443.658, 406.779 436.314 L 393.559 422.963 399.287 417.235 L 405.015 411.506 417.402 423.942 C 424.215 430.782, 430.741 436.730, 431.905 437.160 C 436.399 438.823, 442 433.755, 442 428.026 C 442 426.729, 437.510 421.338, 430 413.622 C 423.400 406.840, 418 400.680, 418 399.933 C 418 398.327, 425.943 390, 427.475 390 C 428.056 390, 433.693 395.175, 440 401.500 C 450.665 412.196, 451.737 413, 455.323 413 C 462.218 413, 465.349 405.810, 460.915 400.158 C 459.769 398.696, 454.594 393.144, 449.415 387.819 C 444.237 382.494, 440 377.665, 440 377.086 C 440 375.598, 448.409 367, 449.865 367 C 450.529 367, 455.373 371.468, 460.629 376.930 C 465.885 382.391, 471.784 387.618, 473.738 388.546 C 476.972 390.081, 477.580 390.094, 480.521 388.691 C 484.075 386.996, 486.169 382.683, 484.984 379.495 C 484.576 378.398, 479.688 372.671, 474.121 366.770 C 467.293 359.531, 464 355.286, 464 353.723 C 464 350.525, 471.162 343.597, 473.645 344.393 C 474.665 344.720, 480.163 349.715, 485.862 355.494 C 495.505 365.271, 496.495 366, 500.127 366 C 503.457 366, 504.320 365.523, 506.011 362.750 C 507.101 360.962, 507.994 358.665, 507.996 357.643 C 507.998 356.622, 504.749 352.347, 500.776 348.143 C 496.803 343.940, 491.572 338.403, 489.151 335.839 L 484.751 331.178 501.469 313.839 C 522.003 292.542, 523.261 290.576, 523.818 278.917 C 524.452 265.664, 522.934 263.048, 502.095 241.482 C 492.228 231.271, 485 222.991, 485 221.899 C 485 220.859, 489.714 215.066, 495.475 209.026 C 506.006 197.986, 507.743 195.095, 506.594 190.518 C 505.963 188.003, 501.505 185, 498.404 185 C 497.472 185, 491.160 190.400, 484.378 197 C 477.596 203.600, 471.419 209, 470.651 209 C 469.340 209, 461 200.744, 461 199.446 C 461 199.117, 465.817 193.715, 471.705 187.442 C 483.029 175.377, 484.908 172.813, 484.965 169.339 C 485.007 166.727, 479.698 162, 476.721 162 C 475.338 162, 470.125 166.422, 461.822 174.638 C 449.456 186.873, 448.976 187.229, 446.774 185.784 C 445.523 184.963, 443.169 182.415, 441.543 180.121 L 438.587 175.951 448.124 166.225 C 460.581 153.523, 463 150.412, 463 147.098 C 463 143.461, 459.122 139.898, 455.037 139.782 C 452.236 139.702, 450.325 141.201, 439.655 151.846 C 432.954 158.530, 426.972 164, 426.363 164 C 425.151 164, 417 155.525, 417 154.265 C 417 153.836, 422.375 147.816, 428.945 140.887 C 435.514 133.959, 441.185 127.111, 441.547 125.670 C 442.069 123.589, 441.583 122.429, 439.179 120.025 C 433.875 114.721, 432.229 115.459, 418.039 129.500 C 411.090 136.375, 404.958 142, 404.411 142 C 403.259 142, 395 133.801, 395 132.658 C 395 132.237, 400.400 126.054, 407 118.918 C 419.378 105.536, 420.786 102.909, 417.718 98.913 C 416.173 96.901, 412.635 95, 410.435 95 C 409.503 95, 403.007 100.625, 396 107.500 C 388.993 114.375, 382.790 120, 382.215 120 C 380.884 120, 373 111.093, 373 109.588 C 373 108.967, 377.099 104.418, 382.108 99.479 C 397.852 83.959, 400.236 78.944, 393.750 74.989 C 387.871 71.404, 386.665 72.011, 373.341 85.250 C 366.560 91.987, 360.440 97.625, 359.741 97.778 C 358.128 98.131, 351 89.685, 351 87.421 C 351 86.487, 355.967 80.596, 362.037 74.329 C 368.107 68.063, 373.506 61.800, 374.033 60.412 C 375.794 55.781, 370.837 50, 365.106 50 C 364.116 50, 357.627 55.691, 350.687 62.646 L 338.069 75.292 325.037 62.896 C 317.870 56.078, 309.796 48.636, 307.096 46.357 C 297.133 37.948, 283.623 35.635, 273.094 40.536 M 283 56.706 C 279.995 57.805, 277 61.410, 277.004 63.924 C 277.006 65.341, 277.906 67.973, 279.004 69.774 C 280.892 72.871, 280.998 74.794, 280.965 105.274 C 280.937 130.028, 280.623 138.052, 279.610 139.879 C 278.885 141.187, 270.638 149.962, 261.283 159.379 C 251.929 168.796, 243.763 177.483, 243.138 178.684 C 242.382 180.135, 242 188.732, 242 204.279 C 242 226.337, 242.114 227.794, 243.979 229.481 C 245.716 231.053, 246.216 231.101, 248.070 229.869 C 250.108 228.516, 250.188 227.671, 250.341 205.748 L 250.500 183.029 263.509 169.765 C 270.664 162.469, 279.214 153.674, 282.509 150.220 L 288.500 143.940 289 109.052 L 289.500 74.163 291.750 71.122 C 297.352 63.551, 291.346 53.655, 283 56.706 M 306.455 80.455 C 303.458 83.451, 303.303 87.345, 306.004 91.774 C 307.876 94.845, 308 96.831, 308.005 123.774 C 308.007 139.573, 308.301 157.563, 308.657 163.750 C 309.286 174.653, 309.377 175, 311.618 175 C 315.163 175, 315.999 172.113, 316.015 159.816 C 316.024 153.592, 316.397 147.923, 316.844 147.218 C 317.451 146.262, 320.802 146.007, 330.015 146.218 L 342.372 146.500 344.941 150.896 C 348.761 157.432, 351.994 159.450, 358.493 159.356 C 372.788 159.150, 378.994 144.640, 369.353 133.969 C 363.323 127.294, 354.851 127.330, 347.548 134.062 L 343.276 138 330.838 138 C 322.497 138, 318.005 137.605, 317.200 136.800 C 316.346 135.946, 316 129.794, 316 115.474 L 316 95.349 318.500 93 C 321.689 90.004, 321.883 84.392, 318.927 80.635 C 316.087 77.024, 309.973 76.936, 306.455 80.455 M 243.500 93.417 C 238.728 95.547, 234.905 100.286, 234.296 104.828 C 233.464 111.036, 234.709 114.089, 240.114 119.095 C 243.734 122.448, 245.233 124.664, 245.660 127.289 C 246.809 134.375, 245.424 137.398, 237.214 145.712 C 230.957 152.049, 228.609 153.756, 224.781 154.750 C 218.864 156.287, 216.489 159.466, 217.340 164.710 C 218.152 169.713, 221.067 172.423, 225.502 172.297 C 230.766 172.148, 233.692 169.784, 234.495 165.032 C 235.045 161.776, 236.918 159.093, 244.089 151.293 L 253 141.600 253 132.631 L 253 123.661 258.500 118.542 C 263.744 113.661, 264 113.192, 264 108.446 C 264 96.354, 253.752 88.841, 243.500 93.417 M 245 103 C 240.996 107.004, 243.833 113.250, 249.656 113.250 C 252.474 113.250, 256 109.967, 256 107.344 C 256 105.206, 251.389 101, 249.045 101 C 247.920 101, 246.100 101.900, 245 103 M 627.750 114.723 L 607 115.041 607 174.020 L 607 233 645 233 L 683 233 683 226.500 L 683 220 652 220 L 621 220 621 200.500 L 621 181 647.500 181 L 674 181 674 174.500 L 674 168 648.750 167.882 C 634.862 167.816, 622.938 167.836, 622.250 167.925 C 621.286 168.051, 621 163.499, 621 148.044 L 621 128 652.046 128 L 683.091 128 682.796 121.250 L 682.500 114.500 665.500 114.452 C 656.150 114.426, 639.163 114.548, 627.750 114.723 M 889.369 115.480 C 889.107 116.164, 889.029 119.374, 889.196 122.612 L 889.500 128.500 896.500 128.500 L 903.500 128.500 903.500 121.500 L 903.500 114.500 896.674 114.368 C 892.047 114.278, 889.693 114.636, 889.369 115.480 M 1275.522 114.811 C 1275.235 115.098, 1275 118.408, 1275 122.167 L 1275 129 1282 129 L 1289 129 1289 121.466 L 1289 113.932 1282.522 114.111 C 1278.959 114.209, 1275.809 114.524, 1275.522 114.811 M 1655.250 114.640 C 1654.421 114.989, 1654 117.498, 1654 122.083 L 1654 129 1661.044 129 L 1668.088 129 1667.794 121.750 L 1667.500 114.500 1662 114.307 C 1658.975 114.200, 1655.938 114.350, 1655.250 114.640 M 1786 165.305 C 1786 201.483, 1786.341 217.708, 1787.153 220.101 C 1790.252 229.236, 1796.180 232.943, 1807.750 232.978 L 1815 233 1815 226.500 L 1815 220 1810.434 220 C 1806.518 220, 1802.861 218.946, 1801 217.282 C 1800.725 217.036, 1800.275 193.809, 1800 165.667 L 1799.500 114.500 1792.750 114.204 L 1786 113.909 1786 165.305 M 1546 174.024 L 1546 233.158 1575.250 232.829 L 1604.500 232.500 1610.762 229.608 C 1635.231 218.308, 1634.985 181.979, 1610.382 173.521 L 1606.699 172.254 1610.271 171.076 C 1620.990 167.538, 1626.973 158.695, 1626.990 146.365 C 1627.009 132.687, 1621.289 122.635, 1610.788 117.889 L 1605.500 115.500 1575.750 115.195 L 1546 114.890 1546 174.024 M 1570.228 127.682 L 1559.956 128.070 1560.228 146.785 L 1560.500 165.500 1580.500 165.500 C 1599.706 165.500, 1600.664 165.406, 1604.632 163.132 C 1610.940 159.517, 1613.295 154.513, 1612.849 145.672 C 1612.046 129.780, 1604.044 126.402, 1570.228 127.682 M 354.805 139.205 C 351.706 141.572, 351.512 145.603, 354.359 148.450 C 355.761 149.852, 357.812 151, 358.916 151 C 361.501 151, 365 147.243, 365 144.466 C 365 140.266, 358.088 136.698, 354.805 139.205 M 736.718 148.033 C 731.175 149.424, 726.980 151.761, 722.750 155.813 L 719 159.406 719 153.703 L 719 148 712 148 L 705 148 705 190.500 L 705 233 712 233 L 719 233 719 203.468 C 719 180.788, 719.316 173.178, 720.364 170.671 C 724.410 160.987, 739.478 157.423, 750.113 163.634 C 752.059 164.771, 754.456 167.587, 755.956 170.501 L 758.500 175.440 758.830 204.220 L 759.161 233 766.080 233 L 773 233 772.982 209.250 C 772.962 181.595, 771.972 170.129, 769.010 163.246 C 766.497 157.402, 761.003 151.724, 755.744 149.533 C 750.966 147.543, 741.611 146.805, 736.718 148.033 M 814.173 148.905 C 807.622 151.168, 801.905 156.560, 798.812 163.393 C 796.621 168.233, 796.500 169.650, 796.500 190.500 C 796.500 211.345, 796.621 212.763, 798.801 217.500 C 801.559 223.493, 806.063 228.399, 811.500 231.335 C 814.796 233.115, 817.171 233.495, 825 233.497 C 835.429 233.500, 838.785 232.351, 844.681 226.759 L 847.861 223.742 848.540 227.359 C 849.486 232.404, 847.486 242.658, 844.773 246.672 C 841.503 251.510, 833.991 255, 826.851 255 C 820.137 255, 817.088 253.871, 811.217 249.212 L 806.935 245.813 802.467 249.473 C 800.010 251.487, 798 253.501, 798 253.951 C 798 255.532, 806.309 262.250, 810.878 264.363 C 817.584 267.464, 836.355 267.455, 843.122 264.348 C 853.446 259.608, 859.984 250.461, 861.956 238 C 862.540 234.312, 862.988 213.438, 862.992 189.750 L 863 148 856 148 L 849 148 849 153 C 849 155.750, 848.732 158, 848.403 158 C 848.075 158, 845.831 156.261, 843.417 154.135 C 835.834 147.461, 824.317 145.402, 814.173 148.905 M 960.792 148.345 C 955.546 149.821, 948.407 154.371, 946.890 157.205 C 945.297 160.182, 944 158.268, 944 152.941 L 944 148 937 148 L 930 148 930 190.500 L 930 233 936.945 233 L 943.890 233 944.195 203.250 C 944.481 175.377, 944.631 173.248, 946.584 169.500 C 949.624 163.664, 955.447 160.706, 963.896 160.706 C 970.993 160.706, 974.973 162.174, 978.702 166.169 C 983.661 171.480, 984 173.928, 984 204.468 L 984 233 991.063 233 L 998.127 233 997.813 201.250 L 997.500 169.500 994.601 163.223 C 991.560 156.637, 986.819 151.658, 981.454 149.416 C 976.551 147.368, 966.177 146.830, 960.792 148.345 M 1048.195 148.067 C 1030.214 151.607, 1021.031 166.300, 1021.008 191.566 C 1020.993 206.845, 1024.323 217.256, 1031.526 224.460 C 1043.772 236.705, 1067.410 237.130, 1083.368 225.390 L 1088.237 221.809 1083.474 216.973 L 1078.711 212.138 1075.106 214.981 C 1070.814 218.366, 1063.365 221.009, 1058.215 220.976 C 1048.175 220.912, 1041.162 217.020, 1037.534 209.500 C 1034.781 203.793, 1033.802 196.598, 1035.750 196.386 C 1036.438 196.311, 1048.990 196.194, 1063.644 196.125 L 1090.287 196 1089.716 185.750 C 1089.051 173.818, 1087.271 167.262, 1082.907 160.674 C 1075.912 150.113, 1062.514 145.247, 1048.195 148.067 M 1137 148.331 C 1129.812 149.998, 1125.753 152.221, 1121.051 157.066 C 1113.602 164.743, 1110.994 173.766, 1111.012 191.799 C 1111.034 213.677, 1116.217 224.022, 1130.500 230.695 C 1135.886 233.212, 1137.574 233.497, 1147 233.484 C 1155.764 233.472, 1158.327 233.095, 1162.500 231.199 C 1168.841 228.319, 1177.025 222.808, 1176.904 221.500 C 1176.853 220.950, 1174.874 218.796, 1172.506 216.712 L 1168.200 212.925 1164.559 215.396 C 1158.728 219.352, 1151.520 221.325, 1145.039 220.737 C 1132.831 219.630, 1125.714 212.828, 1124.304 200.916 L 1123.714 195.940 1150.607 196 C 1165.398 196.033, 1178.063 196.047, 1178.750 196.030 C 1181.563 195.962, 1179.274 174.462, 1175.600 166.437 C 1172.361 159.363, 1166.023 152.686, 1160.147 150.159 C 1153.936 147.487, 1144.014 146.703, 1137 148.331 M 1233.951 148.311 C 1228.235 149.917, 1222.828 153.227, 1219.542 157.132 L 1217 160.153 1217 154.077 L 1217 148 1210 148 L 1203 148 1203 190.500 L 1203 233 1210 233 L 1217 233 1217.022 203.750 C 1217.042 177.440, 1217.230 174.090, 1218.896 170.421 C 1219.915 168.178, 1221.949 165.399, 1223.415 164.246 C 1229.347 159.580, 1241.983 159.393, 1248.055 163.882 L 1250.896 165.983 1255.587 159.887 C 1260.693 153.251, 1260.760 153.648, 1253.926 150.031 C 1249.172 147.514, 1239.691 146.698, 1233.951 148.311 M 1346.951 148.305 C 1341.057 149.969, 1335.668 153.337, 1332.528 157.321 L 1330.022 160.500 1330.011 154.250 L 1330 148 1323 148 L 1316 148 1316 190.500 L 1316 233 1322.946 233 L 1329.892 233 1330.196 202.750 C 1330.481 174.431, 1330.630 172.279, 1332.535 169.035 C 1338.306 159.212, 1355.716 157.490, 1364.140 165.908 C 1366.142 167.908, 1368.277 171.335, 1368.885 173.523 C 1369.567 175.982, 1369.991 188.089, 1369.994 205.250 L 1370 233 1377.053 233 L 1384.105 233 1383.749 201.750 C 1383.364 167.958, 1383.144 166.376, 1377.723 158.407 C 1371.637 149.459, 1358.332 145.091, 1346.951 148.305 M 1425.670 148.559 C 1419.143 150.651, 1412.903 157.027, 1409.977 164.593 C 1408.052 169.571, 1407.620 172.965, 1407.229 186.166 C 1406.524 209.968, 1409.273 220.958, 1417.660 227.871 C 1428.152 236.519, 1446.984 236.016, 1456.158 226.842 L 1460.207 222.793 1459.853 231.647 C 1459.432 242.215, 1457.308 247.096, 1451.280 251.356 C 1448.151 253.567, 1445.745 254.331, 1440.622 254.742 C 1432.598 255.386, 1426.848 253.497, 1421.743 248.539 L 1418.262 245.158 1414.131 249.367 C 1411.859 251.682, 1410 254.037, 1410 254.601 C 1410 255.799, 1414.411 259.970, 1418 262.164 C 1427.327 267.867, 1444.605 268.617, 1455.176 263.777 C 1462.190 260.566, 1468.395 254.109, 1471.256 247.043 L 1473.500 241.500 1473.796 194.750 L 1474.092 148 1467.046 148 L 1460 148 1460 153.571 L 1460 159.142 1456.635 155.575 C 1449.896 148.429, 1435.941 145.267, 1425.670 148.559 M 1719 147.977 C 1704.902 150.628, 1695.772 159.965, 1693.089 174.474 C 1690.659 187.622, 1692.386 210.044, 1696.431 217.867 C 1698.870 222.583, 1704.956 228.023, 1711 230.890 C 1715.851 233.191, 1717.739 233.497, 1727 233.484 C 1735.790 233.472, 1738.314 233.098, 1742.500 231.186 C 1757.307 224.421, 1762.920 210.885, 1761.673 184.946 C 1760.761 165.946, 1755.501 156.173, 1743.247 150.707 C 1736.783 147.824, 1726.171 146.629, 1719 147.977 M 1856.972 148.306 C 1845.242 150.945, 1836.700 158.885, 1833.562 170.066 C 1831.378 177.849, 1831.392 203.588, 1833.584 210.972 C 1837.846 225.324, 1847.603 232.760, 1863.470 233.750 C 1876.314 234.551, 1887.525 230.423, 1893.390 222.733 C 1899.185 215.135, 1900.341 210.678, 1900.813 194.100 C 1901.438 172.156, 1899.360 164.263, 1890.790 156.029 C 1888.477 153.807, 1884.279 151.126, 1881.461 150.071 C 1874.659 147.526, 1863.889 146.750, 1856.972 148.306 M 1943.500 147.872 C 1935.475 149.994, 1928.561 156.380, 1925.391 164.596 C 1923.752 168.847, 1923.500 172.297, 1923.500 190.500 C 1923.500 214.226, 1924.296 218.001, 1930.823 225.226 C 1936.823 231.868, 1941.030 233.505, 1952 233.468 C 1962.419 233.434, 1965.885 232.256, 1971.646 226.793 L 1974.792 223.809 1975.413 227.655 C 1975.754 229.770, 1975.586 234.173, 1975.039 237.439 C 1973.840 244.589, 1970.299 249.499, 1963.942 252.822 C 1960.204 254.776, 1958.385 255.080, 1952.465 254.736 C 1945.240 254.317, 1942.098 253, 1936.787 248.167 L 1934.075 245.698 1929.537 249.416 C 1927.042 251.461, 1925 253.462, 1925 253.864 C 1925 254.266, 1926.688 256.238, 1928.750 258.248 C 1934.437 263.789, 1940.995 266.290, 1951.179 266.802 C 1972.620 267.879, 1986.117 257.411, 1988.961 237.500 C 1989.511 233.650, 1989.969 211.938, 1989.980 189.250 L 1990 148 1983 148 L 1976 148 1976 152.441 C 1976 157.946, 1974.978 158.675, 1971.895 155.370 C 1966.147 149.207, 1952.292 145.548, 1943.500 147.872 M 889.708 148.626 C 889.318 149.015, 889 168.158, 889 191.167 L 889 233 896.511 233 L 904.022 233 903.761 190.750 L 903.500 148.500 896.958 148.209 C 893.359 148.049, 890.097 148.237, 889.708 148.626 M 1275.667 148.667 C 1275.300 149.033, 1275 168.158, 1275 191.167 L 1275 233 1282 233 L 1289 233 1289 190.500 L 1289 148 1282.667 148 C 1279.183 148, 1276.033 148.300, 1275.667 148.667 M 1654 190.500 L 1654 233 1661 233 L 1668 233 1668 190.500 L 1668 148 1661 148 L 1654 148 1654 190.500 M 2009.460 157.250 C 2011.315 162.338, 2018.560 181.969, 2025.560 200.875 L 2038.286 235.251 2036.655 240.375 C 2033.323 250.840, 2028.736 255, 2020.532 255 L 2017 255 2017 261.500 L 2017 268 2022.250 267.994 C 2032.201 267.984, 2039.153 264.473, 2042.662 257.686 C 2043.991 255.117, 2081 149.534, 2081 148.314 C 2081 148.093, 2077.774 148.045, 2073.830 148.206 L 2066.660 148.500 2055.535 181.885 L 2044.410 215.270 2032.481 181.635 L 2020.552 148 2013.319 148 L 2006.086 148 2009.460 157.250 M 183.170 159.716 C 179.895 160.340, 173.428 167.109, 172.719 170.655 C 171.947 174.513, 173.368 180.676, 175.770 183.894 C 176.817 185.296, 179.771 187.489, 182.336 188.768 L 187 191.094 187 195.646 C 187 198.149, 187.755 201.841, 188.677 203.849 C 190.485 207.783, 229.218 246.610, 232.322 247.600 C 234.156 248.184, 238 245.561, 238 243.725 C 238 243.194, 228.580 233.192, 217.068 221.498 C 192.066 196.104, 191.653 195.247, 199.137 184.320 C 201.484 180.893, 202 179.087, 202 174.298 C 202 169.263, 201.579 167.945, 198.956 164.763 C 195.054 160.030, 190.003 158.415, 183.170 159.716 M 820.450 161.407 C 816.504 163.125, 812.345 168.111, 810.949 172.795 C 810.275 175.056, 809.973 182.737, 810.172 192.500 C 810.534 210.174, 811.615 214.165, 817.093 218.066 C 821.465 221.179, 829.562 222.518, 835 221.026 C 840.875 219.415, 846.320 213.756, 847.853 207.670 C 849.533 200.996, 849.323 178.450, 847.524 172.391 C 845.940 167.057, 842.223 162.778, 837.685 161.064 C 833.819 159.603, 824.149 159.796, 820.450 161.407 M 1046.034 162.697 C 1041.583 165.036, 1040.052 166.558, 1037.784 170.899 C 1035.972 174.368, 1035 177.759, 1035 180.614 L 1035 185 1056.129 185 L 1077.258 185 1076.579 179.883 C 1074.932 167.471, 1068.584 160.876, 1057.633 160.202 C 1052.384 159.879, 1050.712 160.239, 1046.034 162.697 M 1138.211 161.129 C 1133.039 162.621, 1127.336 169.035, 1125.467 175.466 C 1122.688 185.025, 1121.523 184.500, 1145.514 184.500 L 1166.500 184.500 1166.198 181 C 1165.690 175.114, 1163.089 168.459, 1160.223 165.715 C 1154.807 160.527, 1146.384 158.772, 1138.211 161.129 M 1431.020 161.752 C 1427.073 163.734, 1423.496 168.554, 1422.016 173.882 C 1420.443 179.546, 1420.751 202.799, 1422.476 208.609 C 1425.419 218.518, 1435.554 223.813, 1446.128 220.965 C 1452.224 219.324, 1455.426 216.753, 1457.883 211.526 C 1459.770 207.512, 1460 205.240, 1460 190.633 C 1460 178.738, 1459.611 173.320, 1458.582 170.872 C 1457.090 167.323, 1452.990 163.010, 1449.316 161.122 C 1445.897 159.366, 1435.024 159.740, 1431.020 161.752 M 1721.513 161.134 C 1715.672 162.501, 1711.267 165.902, 1708.735 171 C 1706.710 175.078, 1706.500 176.962, 1706.500 191.080 L 1706.500 206.659 1709.500 211.489 C 1713.613 218.111, 1718.416 220.508, 1727.500 220.473 C 1736.451 220.439, 1741.553 217.496, 1745.085 210.331 C 1747.270 205.897, 1747.467 204.267, 1747.479 190.500 C 1747.493 173.838, 1746.402 170.041, 1740.073 164.715 C 1737.582 162.619, 1728.864 159.719, 1726.201 160.100 C 1725.815 160.156, 1723.706 160.621, 1721.513 161.134 M 1860.177 161.170 C 1854.792 162.386, 1848.554 168.344, 1847.071 173.685 C 1846.488 175.783, 1846.019 183.800, 1846.028 191.500 C 1846.045 206.678, 1847.171 211.142, 1852.132 215.702 C 1860.028 222.962, 1873.796 222.661, 1881.037 215.071 C 1885.947 209.924, 1887 205.454, 1887 189.748 C 1887 176.887, 1886.864 175.967, 1884.202 170.864 C 1879.842 162.507, 1870.658 158.801, 1860.177 161.170 M 1947.500 161.359 C 1943.609 163.156, 1940.480 166.608, 1938.548 171.232 C 1937.367 174.058, 1937 178.778, 1937 191.152 C 1937 205.633, 1937.227 207.837, 1939.121 211.750 C 1944.594 223.055, 1961.253 225.303, 1970.169 215.940 C 1975.176 210.681, 1976.299 205.044, 1975.834 187.500 C 1975.413 171.625, 1974.206 167.785, 1968.202 163.205 C 1965.275 160.972, 1963.498 160.477, 1957.593 160.248 C 1953.110 160.075, 1949.396 160.484, 1947.500 161.359 M 183.035 170.934 C 180.559 175.560, 183.279 181, 188.068 181 C 190.436 181, 193 177.740, 193 174.728 C 193 169.876, 185.193 166.903, 183.035 170.934 M 325.265 179.491 C 313.757 182.701, 311.287 184.720, 272.691 222.458 C 203.595 290.019, 194.550 299.192, 191.727 304.575 C 184.131 319.060, 184.242 334.955, 192.049 350.500 C 199.963 366.259, 213.467 374.353, 231.679 374.253 C 247.373 374.166, 256.075 369.662, 274.375 352.152 C 306.473 321.438, 377.302 250.156, 379.056 246.800 C 383.411 238.467, 384.454 233.779, 384.462 222.500 L 384.470 211.500 380.271 202.883 C 375.401 192.891, 367.980 185.294, 359 181.110 C 354.258 178.900, 351.916 178.512, 342 178.289 C 334.245 178.115, 328.795 178.506, 325.265 179.491 M 1572.250 178.694 L 1560 179.062 1560 199.635 L 1560 220.209 1579.750 219.851 C 1598.436 219.513, 1599.769 219.359, 1604.499 216.997 C 1610.334 214.082, 1613.632 209.635, 1614.563 203.427 C 1616.110 193.110, 1612.612 185.019, 1604.999 181.306 C 1599.837 178.789, 1591.436 178.119, 1572.250 178.694 M 279.035 179.734 C 274.093 181.677, 272.430 189.734, 276.026 194.306 C 278.691 197.694, 281.249 198.403, 285.612 196.963 C 290.774 195.259, 292.628 190.609, 290.382 184.997 C 288.216 179.583, 284.180 177.711, 279.035 179.734 M 136.327 201.765 C 135.132 201.960, 132.994 203.279, 131.577 204.696 C 127.940 208.332, 128.077 213.231, 131.923 217.077 C 135.463 220.617, 138.575 220.778, 143.170 217.660 C 147.140 214.965, 156.201 213.665, 161.264 215.062 C 163.627 215.715, 171.605 222.834, 189.198 239.988 C 204.427 254.837, 214.575 264, 215.790 264 C 218.735 264, 220.223 261.696, 219.100 258.872 C 218.582 257.567, 206.985 245.378, 193.329 231.784 L 168.500 207.068 157.500 206.392 C 149.697 205.912, 145.773 205.223, 144 204.021 C 140.794 201.847, 139.022 201.326, 136.327 201.765 M 420.213 204.515 C 418.067 205.442, 416.413 207.162, 415.449 209.467 C 414.151 212.574, 414.150 213.423, 415.438 216.506 C 419.436 226.074, 433.513 220.880, 431.576 210.552 C 430.485 204.740, 425.645 202.168, 420.213 204.515 M 442.328 229.883 C 437.682 232.054, 435.353 234.983, 434.372 239.888 C 434.011 241.694, 433.197 243.371, 432.564 243.614 C 431.930 243.857, 422.662 244.381, 411.967 244.778 C 394.373 245.431, 392.491 245.671, 392.179 247.298 C 391.351 251.624, 393.120 252, 414.372 252.004 L 434.500 252.009 439 255 C 449.129 261.733, 462.169 256.615, 463.685 245.311 C 464.356 240.306, 461.314 232.907, 457.579 230.460 C 453.592 227.847, 447.202 227.606, 442.328 229.883 M 101.800 238.046 C 99.190 240.656, 98.837 241.608, 99.337 244.690 C 100.068 249.193, 103.548 253.002, 106.924 252.995 C 108.341 252.992, 111.300 251.881, 113.500 250.526 C 117.176 248.262, 118.502 248.060, 129.879 248.031 L 142.258 248 146.225 251.584 C 150.568 255.508, 153.129 255.621, 158 252.105 C 161.440 249.622, 161.925 243.446, 158.975 239.696 C 157.269 237.526, 156.028 237, 152.619 237 C 150.289 237, 147.509 237.661, 146.441 238.468 C 144.970 239.581, 141.350 239.943, 131.500 239.963 C 119.409 239.988, 118.220 239.818, 114.500 237.526 C 109.028 234.156, 105.548 234.298, 101.800 238.046 M 444.446 239.442 C 442.315 242.695, 442.921 245.869, 446.130 248.255 C 449.384 250.675, 452.493 249.894, 454.391 246.179 C 457.754 239.596, 448.467 233.305, 444.446 239.442 M 71.455 270.455 C 68.290 273.619, 68.113 279.603, 71.073 283.365 C 73.767 286.790, 78.298 286.841, 83.215 283.500 L 86.894 281 143.365 281 C 174.424 281, 200.548 280.727, 201.418 280.393 C 203.299 279.671, 203.529 275.460, 201.750 274.309 C 201.063 273.864, 174.774 273.275, 143.332 273 L 86.164 272.500 83.123 270.250 C 79.081 267.260, 74.570 267.339, 71.455 270.455 M 489.182 270.500 L 486.211 273 428.755 273 C 371.538 273, 365 273.349, 365 276.407 C 365 277.073, 365.563 278.332, 366.250 279.204 C 367.359 280.611, 374.253 280.844, 427.294 281.262 L 487.087 281.733 489.504 284.004 C 491.450 285.832, 492.639 286.158, 495.604 285.677 C 504.015 284.312, 507.039 275.735, 500.923 270.589 C 497.030 267.313, 493.006 267.282, 489.182 270.500 M 349.544 292.344 C 346.833 294.327, 348.173 297.983, 353.365 302.769 C 361.638 310.395, 363 312.886, 363 320.394 C 363 324.287, 363.600 328.232, 364.431 329.800 C 365.219 331.285, 372.199 338.800, 379.944 346.500 L 394.026 360.500 405.357 361.108 C 415.282 361.641, 417.154 362.033, 420.436 364.262 C 423.549 366.378, 424.710 366.657, 427.305 365.913 C 432.201 364.508, 434.482 361.607, 434.360 356.939 C 434.139 348.538, 426.433 345.243, 419.882 350.750 C 416.890 353.266, 415.905 353.500, 408.320 353.500 L 400.029 353.500 387.408 341 C 373.258 326.985, 371.055 323.419, 371.022 314.479 L 371 308.458 362.230 299.729 C 357.407 294.928, 352.993 291, 352.421 291 C 351.850 291, 350.555 291.605, 349.544 292.344 M 115.467 298.998 C 108.096 302.647, 105.535 311.322, 109.455 319.368 C 111.925 324.437, 116.226 326.992, 122.300 326.996 C 130.072 327.002, 134.841 323.653, 137.338 316.434 C 139.056 311.467, 139.901 311.271, 160.316 311.118 C 176.670 310.996, 180 310.299, 180 307 C 180 303.560, 176.773 303.001, 156.816 302.983 L 137.500 302.966 132.500 300 C 126.512 296.448, 121.244 296.138, 115.467 298.998 M 443.324 306.944 C 441.577 308.009, 439.130 310.257, 437.886 311.940 L 435.624 315 424.967 315 C 415.750 315, 414.077 314.742, 412.583 313.091 C 409.357 309.528, 405.589 308.627, 401.676 310.484 C 395.745 313.298, 394.518 319.714, 398.881 325.101 C 401.478 328.309, 407.908 328.375, 411.258 325.227 C 413.384 323.230, 414.656 323.002, 423.564 323.015 C 429.029 323.024, 433.953 323.361, 434.506 323.765 C 435.059 324.169, 436.770 326.188, 438.307 328.251 C 442.125 333.373, 446.235 335.346, 451.780 334.721 C 459.062 333.901, 466.023 326.978, 465.978 320.602 C 465.944 315.790, 462.506 309.279, 458.808 307.024 C 454.519 304.409, 447.541 304.373, 443.324 306.944 M 119.180 307.283 C 118.595 307.988, 117.660 309.764, 117.103 311.228 C 115.937 314.296, 117.895 317.360, 121.733 318.475 C 124.594 319.307, 129 315.139, 129 311.602 C 129 307.281, 121.808 304.117, 119.180 307.283 M 448.736 313.761 C 447.766 313.976, 446.261 315.528, 445.391 317.210 C 443.914 320.067, 443.938 320.441, 445.754 322.884 C 448.403 326.449, 453.239 326.925, 455.404 323.834 C 456.282 322.580, 457 320.600, 457 319.432 C 457 316.025, 452.488 312.928, 448.736 313.761 M 637.527 314.088 C 627.051 315.659, 616.455 322.129, 611.538 329.958 C 610.314 331.906, 608.270 336.200, 606.997 339.500 C 604.878 344.987, 604.642 347.468, 604.228 368.522 C 603.944 382.969, 604.197 394.328, 604.907 399.022 C 607.973 419.269, 621.672 432.193, 641.698 433.729 C 664.143 435.450, 681.678 423.337, 685.891 403.201 C 687.666 394.719, 687.345 349.753, 685.458 342.460 C 680.173 322.039, 660.836 310.593, 637.527 314.088 M 820.894 314.929 C 806.433 316.169, 802 322.038, 802 339.943 L 802 348 797.500 348 L 793 348 793 353.943 L 793 359.885 797.250 360.193 L 801.500 360.500 801.762 396.750 L 802.025 433 809.012 433 L 816 433 816 396.500 L 816 360 825.500 360 L 835 360 835 354 L 835 348 825.500 348 L 816 348 816 340.223 C 816 329.010, 816.918 328, 827.102 328 L 835.091 328 834.796 321.312 L 834.500 314.625 831.500 314.451 C 829.850 314.355, 825.077 314.570, 820.894 314.929 M 1065 336.751 L 1065 359.153 1062.454 356.128 C 1059.044 352.075, 1050.773 348.193, 1043.856 347.398 C 1031.942 346.029, 1021.364 351.404, 1016.624 361.233 C 1012.829 369.102, 1011.670 378.145, 1012.243 395.403 C 1012.843 413.481, 1014.718 419.770, 1021.538 426.591 C 1031.337 436.390, 1051.430 436.570, 1061.055 426.945 L 1065 423 1065 428 L 1065 433 1072 433 L 1079 433 1079 373.527 L 1079 314.054 1072 314.202 L 1065 314.349 1065 336.751 M 325.750 316.689 C 324.643 316.979, 324 318.113, 324 319.776 C 324 321.871, 328.771 327.191, 347.500 345.979 L 371 369.554 371 375.144 L 371 380.734 366.921 383.433 C 358.156 389.234, 357.678 401.344, 365.941 408.297 C 369.997 411.710, 377.122 411.999, 383.019 408.990 C 387.803 406.550, 390 402.619, 390 396.500 C 390 390.683, 388.126 387.060, 383.030 383.024 C 379.207 379.996, 379 379.552, 379 374.384 C 379 371.387, 378.305 367.273, 377.456 365.242 C 375.659 360.940, 331.203 315.932, 328.933 316.116 C 328.145 316.180, 326.712 316.438, 325.750 316.689 M 634 329.021 C 620.345 335.384, 617.537 344.242, 618.192 378.891 C 618.549 397.813, 618.771 399.928, 620.904 404.727 C 623.650 410.906, 630.124 417.226, 635.541 419.013 C 645.941 422.446, 658.123 419.982, 665.025 413.051 C 672.241 405.803, 673.002 402.134, 672.989 374.635 C 672.983 361.911, 672.698 349.804, 672.355 347.732 C 671.346 341.627, 666.109 333.948, 660.666 330.590 C 656.462 327.997, 654.701 327.563, 647.166 327.266 C 639.984 326.982, 637.729 327.283, 634 329.021 M 309.975 332.530 C 308.321 334.522, 309.500 337.076, 314.881 343.153 L 319 347.807 319 363.660 C 319 372.379, 318.559 381.050, 318.021 382.928 C 317.325 385.352, 312.007 391.438, 299.674 403.921 C 286.094 417.667, 282.165 422.236, 281.654 424.875 C 281.294 426.731, 280.997 440.006, 280.993 454.375 C 280.987 478.763, 280.855 480.699, 279 483.500 C 276.616 487.100, 276.479 490.092, 278.518 494.035 C 280.356 497.590, 283.687 498.589, 288.455 497.015 C 294.518 495.014, 295.623 490.152, 291.526 483.500 L 289.062 479.500 289.031 453.888 L 289 428.275 292.084 424.395 C 293.779 422.261, 295.467 420.279, 295.834 419.991 C 296.200 419.703, 303.363 412.441, 311.750 403.853 L 327 388.238 327 367.184 C 327 354.835, 326.563 344.966, 325.943 343.315 C 324.426 339.273, 316.006 331, 313.410 331 C 312.219 331, 310.674 331.688, 309.975 332.530 M 151 337.706 C 144.503 340.081, 143.051 347.205, 148.046 352.200 C 150.679 354.832, 151.596 355.166, 154.796 354.657 C 160.022 353.825, 163.385 349.763, 162.642 345.182 C 161.624 338.906, 156.579 335.667, 151 337.706 M 876.500 347.970 C 862.706 350.948, 854.902 358.416, 851.432 371.959 C 850.139 377.004, 849.895 381.527, 850.270 393.426 C 850.798 410.145, 851.572 413.653, 856.277 420.645 C 862.030 429.195, 872.243 434.013, 884.566 433.988 C 900.617 433.956, 912.213 426.360, 917 412.742 C 919.707 405.038, 919.930 377.123, 917.345 369.428 C 913.950 359.322, 906.086 351.427, 897.015 349.017 C 891.534 347.561, 880.909 347.019, 876.500 347.970 M 976 347.883 C 971.175 348.930, 966.594 351.468, 961.940 355.673 C 958.632 358.662, 957.982 358.934, 957.885 357.366 C 957.821 356.340, 957.665 355.050, 957.537 354.500 C 957.409 353.950, 957.236 352.242, 957.152 350.704 L 957 347.909 950.250 348.204 L 943.500 348.500 943.239 390.750 L 942.978 433 949.922 433 L 956.866 433 957.183 403.250 L 957.500 373.500 959.868 369.368 C 963.902 362.328, 972.648 359.088, 982.127 361.121 C 984.795 361.693, 987.982 362.975, 989.210 363.969 L 991.444 365.778 995.752 360.230 C 998.122 357.178, 999.902 354.207, 999.709 353.627 C 999.516 353.047, 997.318 351.556, 994.825 350.312 C 989.798 347.805, 981.367 346.717, 976 347.883 M 706 348.608 C 706 348.943, 712.290 357.881, 719.978 368.470 C 727.666 379.060, 734.180 388.348, 734.454 389.112 C 734.727 389.875, 728.212 399.920, 719.975 411.433 C 711.739 422.946, 705 432.509, 705 432.683 C 705 432.857, 708.487 432.975, 712.750 432.944 L 720.500 432.887 731.500 417.460 C 737.550 408.975, 742.785 402.025, 743.132 402.016 C 743.480 402.007, 748.574 408.975, 754.452 417.500 L 765.140 433 772.570 433 C 776.656 433, 780 432.750, 780 432.443 C 780 432.137, 773.475 422.751, 765.500 411.585 C 757.525 400.418, 751 390.941, 751 390.525 C 751 390.109, 752.504 387.683, 754.342 385.134 C 760.158 377.068, 779 349.108, 779 348.542 C 779 348.244, 775.632 348, 771.516 348 L 764.032 348 753.905 363.500 C 748.334 372.025, 743.470 379, 743.095 379 C 742.720 379, 737.581 372.025, 731.676 363.500 L 720.938 348 713.469 348 C 709.361 348, 706 348.274, 706 348.608 M 283.321 358.189 C 278.304 360.615, 277.804 370.515, 282.542 373.620 C 285.746 375.719, 290.929 374.769, 293.977 371.524 C 295.888 369.490, 296.178 368.360, 295.700 364.800 C 294.797 358.067, 289.464 355.219, 283.321 358.189 M 879.905 360.935 C 874.228 362.040, 869.707 365.233, 867 370.051 C 864.740 374.073, 864.467 375.801, 864.159 388.054 C 863.792 402.604, 864.619 407.655, 868.251 413.045 C 874.609 422.478, 891.215 423.649, 899.277 415.232 C 904.194 410.099, 905.142 406.052, 905.093 390.393 C 905.044 374.785, 904.106 370.809, 899.282 365.773 C 895.394 361.714, 886.857 359.582, 879.905 360.935 M 1035.559 362.266 C 1032.897 363.775, 1030.787 366.115, 1029.059 369.473 C 1026.613 374.227, 1026.501 375.178, 1026.528 390.973 C 1026.551 404.324, 1026.881 408.198, 1028.242 411.130 C 1034.240 424.053, 1053.973 425.546, 1061.839 413.671 L 1064.500 409.654 1064.814 391.775 C 1065.180 370.879, 1064.269 367.567, 1056.827 362.741 C 1051.190 359.086, 1041.551 358.871, 1035.559 362.266 M 255.339 383.250 C 254.911 383.938, 254.384 388.823, 254.169 394.106 L 253.779 403.711 243.919 404.312 C 238.496 404.642, 231.837 404.650, 229.121 404.328 C 224.493 403.780, 224.038 403.463, 221.895 399.296 C 219.301 394.253, 215.577 391.896, 210.079 391.821 C 202.291 391.713, 196.931 394.997, 194.499 401.363 C 192.354 406.980, 193.804 413.004, 198.411 417.611 C 204.656 423.856, 213.463 423.397, 220.716 416.448 L 225.358 412 237.429 412.014 C 244.068 412.021, 250.512 412.299, 251.750 412.630 L 254 413.233 254 435.670 L 254 458.106 251.500 461.785 C 248.485 466.222, 248.380 468.471, 250.989 472.750 C 252.758 475.652, 253.459 476, 257.531 476 C 261.039 476, 262.657 475.434, 264.545 473.545 C 267.629 470.462, 267.623 468.537, 264.510 461.849 L 262.020 456.500 262.010 420.832 C 262.004 401.214, 261.727 384.452, 261.393 383.582 C 260.671 381.701, 256.448 381.470, 255.339 383.250 M 204.571 402.571 C 200.801 406.342, 204.053 413, 209.666 413 C 212.239 413, 215 409.550, 215 406.334 C 215 401.952, 207.792 399.351, 204.571 402.571 M 331.020 402.284 C 328.277 403.672, 326.037 407.380, 326.015 410.570 C 326.007 411.709, 324.421 414.484, 322.492 416.738 C 320.049 419.593, 318.796 422.213, 318.362 425.372 C 317.845 429.150, 317.120 430.338, 314.023 432.484 C 309.140 435.868, 307.454 439.243, 307.710 445.123 C 308.118 454.516, 312.303 459.197, 320.787 459.750 C 330.540 460.385, 336.995 454.837, 336.998 445.815 C 337.001 440.148, 335.376 436.868, 330.365 432.423 L 325.769 428.347 327.379 425.234 C 329.220 421.673, 332.605 419, 335.272 419 C 339.194 419, 342.892 416.095, 343.570 412.481 C 345.179 403.904, 338.517 398.491, 331.020 402.284 M 317.413 441.493 C 315.223 444.835, 316.280 448.576, 319.951 450.475 C 323.550 452.336, 325.625 451.626, 327.567 447.870 C 329.249 444.618, 328.338 441.787, 325.043 440.023 C 321.879 438.330, 319.139 438.858, 317.413 441.493" stroke="none" fill="#082544" fill-rule="evenodd"/></svg>